<svg width="16" height="16" viewBox="0 0 16 16" fill="none" xmlns="http://www.w3.org/2000/svg">
<rect width="16" height="16" rx="8" fill="white"/>
<circle cx="8" cy="8" r="6.55353" stroke="#ED4D50" stroke-width="0.892939"/>
<path d="M7.53686 2.64258V4.7952L2.78516 5.75192C3.15199 4.83805 3.54319 4.36589 4.44347 3.56741L7.53686 2.64258Z" fill="#D63235"/>
<path d="M7.53686 13.3574V11.2048L2.78516 10.2481C3.15199 11.1619 3.54319 11.6341 4.44347 12.4326L7.53686 13.3574Z" fill="#D63235"/>
<path d="M8.49048 13.3574V11.2048L13.2422 10.2481C12.8754 11.1619 12.4842 11.6341 11.5839 12.4326L8.49048 13.3574Z" fill="#F66566"/>
<path d="M8.49048 2.64258V4.7952L13.2422 5.75192C12.8754 4.83805 12.4842 4.36589 11.5839 3.56741L8.49048 2.64258Z" fill="#F66566"/>
<path d="M2.38612 8.845L7.53646 9.35525V6.69238L2.35422 7.20263C2.30354 7.8373 2.30615 8.19646 2.38612 8.845Z" fill="#F66566"/>
<path d="M13.5826 8.83035L8.43229 9.3406V6.67773L13.6145 7.18798C13.6652 7.82265 13.6626 8.18181 13.5826 8.83035Z" fill="#D63235"/>
</svg>
