<svg width="12" height="12" viewBox="0 0 12 12" fill="none" xmlns="http://www.w3.org/2000/svg">
<path d="M7.56732 7.1626L6.17305 6.11761V3.9866C6.17305 3.7726 5.99992 3.59961 5.78574 3.59961C5.57156 3.59961 5.39844 3.7726 5.39844 3.9866V6.31061C5.39844 6.43261 5.45576 6.54761 5.55336 6.62061L7.10254 7.78259C7.1694 7.83259 7.25084 7.85959 7.33453 7.85959C7.45266 7.85959 7.56885 7.80659 7.64477 7.70459C7.77338 7.53359 7.73852 7.2906 7.56732 7.1626Z" fill="#939498" stroke="#939498"/>
<path d="M6 1C3.24283 1 1 3.243 1 6C1 8.757 3.24283 11 6 11C8.75717 11 11 8.757 11 6C11 3.243 8.75717 1 6 1ZM6 10.225C3.67041 10.225 1.77459 8.33 1.77459 6C1.77459 3.67 3.67041 1.77499 6 1.77499C8.32998 1.77499 10.2254 3.67 10.2254 6C10.2254 8.33 8.32959 10.225 6 10.225Z" fill="#939498"/>
<path d="M6 1C3.24283 1 1 3.243 1 6C1 8.757 3.24283 11 6 11C8.75717 11 11 8.757 11 6C11 3.243 8.75717 1 6 1ZM6 10.225C3.67041 10.225 1.77459 8.33 1.77459 6C1.77459 3.67 3.67041 1.77499 6 1.77499C8.32998 1.77499 10.2254 3.67 10.2254 6C10.2254 8.33 8.32959 10.225 6 10.225Z" fill="#939498" stroke="#939498"/>
</svg>
