<svg width="14" height="18" viewBox="0 0 14 18" fill="none" xmlns="http://www.w3.org/2000/svg">
<path fill-rule="evenodd" clip-rule="evenodd" d="M4.07035 13.0402C4.31035 11.7982 4.82046 9.62223 4.93046 9.41323C5.0033 9.27464 5.04622 9.12231 5.05655 8.96609C5.06689 8.80986 5.04434 8.65316 4.99039 8.50619C4.74141 7.69861 4.74141 6.83476 4.99039 6.02718C5.05477 5.7978 5.16734 5.58478 5.32059 5.40237C5.47385 5.21995 5.66434 5.07236 5.87919 4.96938C6.09403 4.86641 6.32837 4.81046 6.56656 4.80526C6.80476 4.80006 7.04127 4.84573 7.26041 4.93923C8.35041 5.40023 7.7504 7.11218 7.6204 7.63918C7.32414 8.45707 7.13267 9.30919 7.05045 10.1752C7.05832 10.5591 7.21692 10.9245 7.49198 11.1925C7.76704 11.4604 8.13643 11.6094 8.52042 11.6072C9.02828 11.5679 9.51518 11.3881 9.92667 11.0879C10.3382 10.7877 10.658 10.3788 10.8504 9.90719C11.3498 8.86949 11.6095 7.73281 11.6104 6.5812C11.6581 5.66348 11.3899 4.75714 10.8504 4.0132C10.4304 3.57022 9.92282 3.21969 9.35978 2.98397C8.79674 2.74825 8.19064 2.63251 7.58036 2.64419C6.42096 2.62529 5.29683 3.04251 4.43046 3.81319C3.51097 4.63404 2.95068 5.78325 2.8704 7.01321C2.82128 7.63883 2.94584 8.26588 3.23038 8.82522C3.45492 9.06957 3.6073 9.37144 3.67045 9.69723C3.63045 9.91123 3.45045 10.5372 3.42045 10.6522C3.39045 10.7672 3.13037 10.9982 2.72037 10.7342C2.02445 10.3047 1.50627 9.63918 1.26041 8.85921C0.895398 7.67616 0.905908 6.40906 1.29044 5.2322C1.77146 4.05708 2.56296 3.03496 3.58036 2.27523C4.86582 1.38228 6.40623 0.930314 7.97037 0.987204C8.80516 0.967802 9.63486 1.12287 10.4063 1.44247C11.1777 1.76206 11.8739 2.23915 12.4504 2.84322C12.9799 3.39863 13.3898 4.0568 13.6547 4.777C13.9196 5.49719 14.0338 6.2641 13.9904 7.03023C14.0095 8.77944 13.3705 10.4719 12.2004 11.7722C11.7711 12.2595 11.2389 12.6453 10.6422 12.9016C10.0456 13.1579 9.39936 13.2784 8.7504 13.2542C8.31317 13.2394 7.88361 13.1354 7.48807 12.9484C7.09254 12.7615 6.73935 12.4956 6.45035 12.1672C6.45035 12.1672 5.89036 14.1432 5.71036 14.7522C5.44292 15.5866 5.08059 16.3875 4.63041 17.1392C4.42683 17.4873 4.14211 17.781 3.80045 17.9952C3.65642 16.9146 3.63959 15.8208 3.7504 14.7362C3.80994 14.163 3.91692 13.5957 4.07035 13.0402Z" fill="#333333"/>
</svg>
