<svg width="14" height="13" viewBox="0 0 14 13" fill="none" xmlns="http://www.w3.org/2000/svg">
<path fill-rule="evenodd" clip-rule="evenodd" d="M4.40972 0.922974C4.77972 1.52297 5.60966 2.97001 5.72966 3.23401C5.83227 3.40901 5.86455 3.61642 5.82 3.81433C5.77544 4.01224 5.65738 4.18585 5.48967 4.29999C5.16347 4.49778 4.85849 4.72869 4.57964 4.98901C4.43964 5.25601 4.30966 6.28902 5.84966 7.82202C7.38966 9.35502 8.62963 9.66502 8.94963 9.32202C9.26963 8.97902 9.45972 8.60002 9.65972 8.40002C9.80557 8.24136 10.0055 8.14308 10.2203 8.12457C10.435 8.10606 10.6488 8.16863 10.8196 8.29999C11.6671 8.74781 12.4855 9.24881 13.2697 9.79999C13.7597 10.178 14.1296 10.453 13.9496 10.944C13.7846 11.4354 13.5112 11.8835 13.1497 12.255C12.8553 12.5476 12.4929 12.7627 12.095 12.881C11.6971 12.9993 11.2761 13.0171 10.8697 12.933C9.71106 12.6485 8.61115 12.1636 7.61968 11.5C6.56745 10.7471 5.58961 9.89517 4.69963 8.95599C3.88608 8.15642 3.14021 7.29077 2.46965 6.36798C1.81107 5.26675 1.33501 4.06626 1.05974 2.81299C0.967669 2.48214 0.958726 2.13371 1.03374 1.79858C1.10876 1.46346 1.26534 1.15205 1.48967 0.892029C1.88981 0.477102 2.39958 0.184348 2.95964 0.0479736C3.34964 -0.0540264 3.78972 -0.0540264 4.40972 0.922974ZM7.49968 1.08197V0C9.22359 0 10.8769 0.684822 12.0959 1.90381C13.3149 3.1228 13.9997 4.77609 13.9997 6.5H12.9197C12.9189 5.06295 12.3476 3.68502 11.3312 2.66907C10.3149 1.65311 8.93673 1.08224 7.49968 1.08197ZM11.8296 6.49902H10.7497C10.7489 5.63731 10.4062 4.8111 9.79692 4.20178C9.1876 3.59246 8.36139 3.24982 7.49968 3.24902V2.16602C8.06857 2.16628 8.63179 2.27857 9.15728 2.49652C9.68276 2.71447 10.1602 3.03377 10.5623 3.43622C10.9644 3.83867 11.2832 4.31636 11.5007 4.84204C11.7181 5.36772 11.8299 5.93111 11.8296 6.5V6.49902Z" fill="#333333"/>
</svg>
