<svg width="15" height="15" viewBox="0 0 15 15" fill="none" xmlns="http://www.w3.org/2000/svg">
<path fill-rule="evenodd" clip-rule="evenodd" d="M7.5 14.9993C6.08594 14.9957 4.70209 14.59 3.51001 13.8293L0 14.9993L1.17004 11.4883C0.288552 10.0816 -0.100415 8.42177 0.0644531 6.76989C0.229321 5.118 0.938676 3.56778 2.08081 2.36303C3.22294 1.15827 4.73304 0.36734 6.37378 0.114613C8.01452 -0.138113 9.6928 0.161689 11.1445 0.966908C12.5963 1.77213 13.7391 3.03703 14.3934 4.56273C15.0478 6.08844 15.1763 7.78841 14.759 9.39519C14.3417 11.002 13.4022 12.4244 12.0881 13.4389C10.7741 14.4534 9.16009 15.0023 7.5 14.9993ZM9.13 8.6353C9.62887 8.79668 10.1363 8.93024 10.65 9.03533C10.7041 9.04328 10.7559 9.06204 10.8025 9.0905C10.8491 9.11897 10.8895 9.15654 10.9213 9.20098C10.953 9.24542 10.9755 9.29585 10.9873 9.34917C10.9991 9.40249 11 9.45765 10.99 9.51134V9.79931C10.9949 9.9021 10.9759 10.0046 10.9342 10.0987C10.8925 10.1928 10.8294 10.2759 10.75 10.3413C10.5035 10.5915 10.2117 10.7924 9.89001 10.9333C9.41547 10.9898 8.93433 10.9479 8.47668 10.8102C8.01904 10.6726 7.59467 10.4421 7.22998 10.1333C6.75979 9.81788 6.32115 9.45793 5.92004 9.05834C5.52083 8.65518 5.15925 8.21631 4.83997 7.7473C4.53359 7.38239 4.30544 6.95845 4.16956 6.50176C4.03367 6.04507 3.99301 5.56539 4.05005 5.09234C4.19118 4.77246 4.39131 4.48204 4.64001 4.23632C4.70338 4.15527 4.78586 4.09124 4.88013 4.05004C4.9744 4.00884 5.07753 3.99174 5.18005 4.00029H5.46997C5.57935 3.98518 5.69033 4.01407 5.77844 4.08062C5.86655 4.14717 5.92456 4.24599 5.93994 4.35534C6.08994 4.94734 6.19998 5.37534 6.34998 5.85534C6.40998 6.05534 6.34005 6.10332 6.18005 6.22332C6.08005 6.30032 6.00004 6.35633 5.92004 6.41533C5.87365 6.43553 5.83202 6.46523 5.79785 6.50255C5.76368 6.53988 5.73771 6.58395 5.72168 6.63195C5.70565 6.67994 5.69983 6.73081 5.70471 6.78118C5.70959 6.83154 5.72505 6.88028 5.75 6.92431C6.00538 7.41582 6.33224 7.86674 6.71997 8.26232C7.11498 8.65078 7.56691 8.97683 8.06006 9.2293C8.1042 9.25382 8.15285 9.26895 8.20312 9.27367C8.2534 9.27839 8.30412 9.27259 8.35205 9.2567C8.39998 9.24082 8.44418 9.21519 8.48169 9.18139C8.5192 9.14758 8.54919 9.10632 8.56995 9.06029C8.62995 8.97929 8.68001 8.90331 8.76001 8.79931C8.77248 8.76336 8.79209 8.73028 8.81763 8.70208C8.84317 8.67387 8.87415 8.65115 8.90869 8.63518C8.94323 8.61922 8.98064 8.61036 9.01868 8.60918C9.05671 8.60801 9.09454 8.61455 9.13 8.62835V8.6353Z" fill="#333333"/>
</svg>
