<svg width="124" height="208" viewBox="0 0 124 208" fill="none" xmlns="http://www.w3.org/2000/svg">
<path fill-rule="evenodd" clip-rule="evenodd" d="M6 40V34H8V38H38V10H30V2H8V14H6V0H31.855L40 8.14301V40H6ZM32 3V8H37L32 3Z" fill="#CACACA"/>
<path d="M31 16H2C0.89543 16 0 16.8954 0 18V30C0 31.1046 0.89543 32 2 32H31C32.1046 32 33 31.1046 33 30V18C33 16.8954 32.1046 16 31 16Z" fill="#E01300"/>
<path fill-rule="evenodd" clip-rule="evenodd" d="M27 23V25H24V28H22V20H27V22H24V23H27ZM17 28H14V20H17C18.0609 20 19.0783 20.4214 19.8284 21.1716C20.5786 21.9217 21 22.9391 21 24C21 25.0609 20.5786 26.0783 19.8284 26.8284C19.0783 27.5786 18.0609 28 17 28ZM17 22H16V26H17C17.5304 26 18.0391 25.7893 18.4142 25.4142C18.7893 25.0391 19 24.5304 19 24C19 23.4696 18.7893 22.9609 18.4142 22.5858C18.0391 22.2107 17.5304 22 17 22ZM10.5 25H8V28H6V20H10.5C11.163 20 11.7989 20.2634 12.2678 20.7322C12.7366 21.2011 13 21.837 13 22.5C13 23.163 12.7366 23.7989 12.2678 24.2678C11.7989 24.7366 11.163 25 10.5 25ZM10.5 22H8V23H10.5C10.6326 23 10.7598 22.9473 10.8535 22.8535C10.9473 22.7598 11 22.6326 11 22.5C11 22.3674 10.9473 22.2402 10.8535 22.1465C10.7598 22.0527 10.6326 22 10.5 22Z" fill="white"/>
<path fill-rule="evenodd" clip-rule="evenodd" d="M48 40V34H50V38H80V10H72V2H50V14H48V0H73.855L82 8.14301V40H48ZM74 3V8H79L74 3Z" fill="#CACACA"/>
<path d="M73 16H44C42.8954 16 42 16.8954 42 18V30C42 31.1046 42.8954 32 44 32H73C74.1046 32 75 31.1046 75 30V18C75 16.8954 74.1046 16 73 16Z" fill="#3387DE"/>
<path fill-rule="evenodd" clip-rule="evenodd" d="M90 40V34H92V38H122V10H114V2H92V14H90V0H115.855L124 8.14301V40H90ZM116 3V8H121L116 3Z" fill="#CACACA"/>
<path d="M115 16H86C84.8954 16 84 16.8954 84 18V30C84 31.1046 84.8954 32 86 32H115C116.105 32 117 31.1046 117 30V18C117 16.8954 116.105 16 115 16Z" fill="#4BA433"/>
<path fill-rule="evenodd" clip-rule="evenodd" d="M6 82V76H8V80H38V52H30V44H8V56H6V42H31.855L40 50.142V82H6ZM32 45V50H37L32 45Z" fill="#CACACA"/>
<path d="M31 58H2C0.89543 58 0 58.8954 0 60V72C0 73.1046 0.89543 74 2 74H31C32.1046 74 33 73.1046 33 72V60C33 58.8954 32.1046 58 31 58Z" fill="#3387DE"/>
<path fill-rule="evenodd" clip-rule="evenodd" d="M48 82V76H50V80H80V52H72V44H50V56H48V42H73.855L82 50.142V82H48ZM74 45V50H79L74 45Z" fill="#CACACA"/>
<path d="M73 58H44C42.8954 58 42 58.8954 42 60V72C42 73.1046 42.8954 74 44 74H73C74.1046 74 75 73.1046 75 72V60C75 58.8954 74.1046 58 73 58Z" fill="#DA820F"/>
<path fill-rule="evenodd" clip-rule="evenodd" d="M90 82V76H92V80H122V52H114V44H92V56H90V42H115.855L124 50.142V82H90ZM116 45V50H121L116 45Z" fill="#CACACA"/>
<path d="M115 58H86C84.8954 58 84 58.8954 84 60V72C84 73.1046 84.8954 74 86 74H115C116.105 74 117 73.1046 117 72V60C117 58.8954 116.105 58 115 58Z" fill="#2659BE"/>
<path fill-rule="evenodd" clip-rule="evenodd" d="M6 124V118H8V122H38V94H30V86H8V98H6V84H31.855L40 92.143V124H6ZM32 87V92H37L32 87Z" fill="#CACACA"/>
<path d="M31 100H2C0.89543 100 0 100.895 0 102V114C0 115.105 0.89543 116 2 116H31C32.1046 116 33 115.105 33 114V102C33 100.895 32.1046 100 31 100Z" fill="#785CB5"/>
<path fill-rule="evenodd" clip-rule="evenodd" d="M48 124V118H50V122H80V94H72V86H50V98H48V84H73.855L82 92.143V124H48ZM74 87V92H79L74 87Z" fill="#CACACA"/>
<path d="M73 100H44C42.8954 100 42 100.895 42 102V114C42 115.105 42.8954 116 44 116H73C74.1046 116 75 115.105 75 114V102C75 100.895 74.1046 100 73 100Z" fill="#3387DE"/>
<path fill-rule="evenodd" clip-rule="evenodd" d="M90 124V118H92V122H122V94H114V86H92V98H90V84H115.855L124 92.143V124H90ZM116 87V92H121L116 87Z" fill="#CACACA"/>
<path d="M115 100H86C84.8954 100 84 100.895 84 102V114C84 115.105 84.8954 116 86 116H115C116.105 116 117 115.105 117 114V102C117 100.895 116.105 100 115 100Z" fill="#C0432A"/>
<path fill-rule="evenodd" clip-rule="evenodd" d="M6 166V160H8V164H38V136H30V128H8V140H6V126H31.855L40 134.142V166H6ZM32 129V134H37L32 129Z" fill="#CACACA"/>
<path d="M31 142H2C0.89543 142 0 142.895 0 144V156C0 157.105 0.89543 158 2 158H31C32.1046 158 33 157.105 33 156V144C33 142.895 32.1046 142 31 142Z" fill="#039200"/>
<path fill-rule="evenodd" clip-rule="evenodd" d="M48 166V160H50V164H80V136H72V128H50V140H48V126H73.855L82 134.142V166H48ZM74 129V134H79L74 129Z" fill="#CACACA"/>
<path d="M73 142H44C42.8954 142 42 142.895 42 144V156C42 157.105 42.8954 158 44 158H73C74.1046 158 75 157.105 75 156V144C75 142.895 74.1046 142 73 142Z" fill="#DF2649"/>
<path fill-rule="evenodd" clip-rule="evenodd" d="M90 166V160H92V164H122V136H114V128H92V140H90V126H115.855L124 134.142V166H90ZM116 129V134H121L116 129Z" fill="#CACACA"/>
<path d="M115 142H86C84.8954 142 84 142.895 84 144V156C84 157.105 84.8954 158 86 158H115C116.105 158 117 157.105 117 156V144C117 142.895 116.105 142 115 142Z" fill="#D24628"/>
<path fill-rule="evenodd" clip-rule="evenodd" d="M69.325 22.512C68.962 22.1832 68.4898 22.0007 68 22C67.6751 21.998 67.3545 22.0752 67.0661 22.2249C66.7777 22.3746 66.5301 22.5924 66.3448 22.8593C66.1594 23.1262 66.0419 23.4342 66.0024 23.7568C65.9629 24.0793 66.0026 24.4066 66.118 24.7104C66.2334 25.0141 66.4211 25.2852 66.6649 25.5001C66.9086 25.715 67.201 25.8673 67.5168 25.9438C67.8327 26.0203 68.1624 26.0186 68.4774 25.9391C68.7925 25.8595 69.0834 25.7043 69.325 25.487L70.435 27.153C69.8442 27.614 69.1358 27.8998 68.3906 27.9778C67.6453 28.0558 66.8931 27.9229 66.2197 27.5942C65.5463 27.2655 64.9787 26.7542 64.5817 26.1187C64.1847 25.4831 63.9742 24.7489 63.9742 23.9995C63.9742 23.2502 64.1847 22.5159 64.5817 21.8803C64.9787 21.2448 65.5463 20.7336 66.2197 20.4049C66.8931 20.0762 67.6453 19.9432 68.3906 20.0212C69.1358 20.0992 69.8442 20.385 70.435 20.846L69.325 22.512ZM59 28C58.2089 28 57.4355 27.7654 56.7777 27.3259C56.1199 26.8864 55.6072 26.2617 55.3045 25.5307C55.0017 24.7998 54.9225 23.9956 55.0769 23.2197C55.2312 22.4437 55.6122 21.731 56.1716 21.1716C56.731 20.6122 57.4437 20.2312 58.2196 20.0769C58.9956 19.9225 59.7998 20.0018 60.5307 20.3045C61.2616 20.6073 61.8864 21.1199 62.3259 21.7777C62.7654 22.4355 63 23.2089 63 24C63 25.0609 62.5786 26.0783 61.8284 26.8284C61.0783 27.5786 60.0609 28 59 28ZM59 22C58.6044 22 58.2178 22.1173 57.8889 22.3371C57.56 22.5568 57.3036 22.8692 57.1522 23.2346C57.0009 23.6001 56.9613 24.0022 57.0384 24.3902C57.1156 24.7782 57.3061 25.1345 57.5858 25.4142C57.8655 25.6939 58.2219 25.8844 58.6098 25.9616C58.9978 26.0387 59.3999 25.9992 59.7654 25.8478C60.1308 25.6964 60.4432 25.4401 60.6629 25.1112C60.8827 24.7823 61 24.3956 61 24C61 23.4696 60.7893 22.9609 60.4142 22.5858C60.0391 22.2107 59.5304 22 59 22ZM50 28H47V20H50C51.0609 20 52.0783 20.4214 52.8284 21.1716C53.5786 21.9217 54 22.9391 54 24C54 25.0609 53.5786 26.0783 52.8284 26.8284C52.0783 27.5786 51.0609 28 50 28ZM50 22H49V26H50C50.5304 26 51.0391 25.7893 51.4142 25.4142C51.7893 25.0392 52 24.5304 52 24C52 23.4696 51.7893 22.9609 51.4142 22.5858C51.0391 22.2107 50.5304 22 50 22Z" fill="white"/>
<path fill-rule="evenodd" clip-rule="evenodd" d="M107.451 22.8749C107.598 22.9365 107.75 22.9857 107.905 23.0219C108.076 23.0849 108.265 23.1219 108.472 23.1849C108.902 23.3316 109.276 23.4769 109.594 23.6209C109.883 23.7456 110.151 23.9142 110.388 24.1209C110.595 24.3064 110.756 24.537 110.859 24.7949C110.97 25.0951 111.023 25.4138 111.015 25.7339C111.029 26.0568 110.962 26.3782 110.821 26.6687C110.679 26.9592 110.466 27.2095 110.203 27.3969C109.468 27.8431 108.613 28.0499 107.756 27.9889C107.425 27.9908 107.094 27.9705 106.765 27.9279C106.502 27.8933 106.241 27.8435 105.983 27.7789C105.784 27.7289 105.589 27.6661 105.398 27.5909C105.258 27.5353 105.12 27.4725 104.986 27.4029L105.511 25.5639C105.804 25.7064 106.11 25.8193 106.425 25.9009C106.86 26.0087 107.308 26.0588 107.756 26.0499C107.933 26.0555 108.11 26.035 108.281 25.9889C108.427 25.9592 108.567 25.9033 108.693 25.8239C108.787 25.7637 108.862 25.6771 108.908 25.5749C108.95 25.5168 108.971 25.4464 108.968 25.3749C108.968 25.1249 108.84 25.1049 108.586 24.9389C108.205 24.7694 107.806 24.642 107.397 24.5589C107.127 24.4709 106.697 24.3689 106.429 24.2589C106.167 24.1499 105.922 24.0048 105.701 23.8279C105.486 23.6548 105.307 23.4407 105.176 23.1979C105.035 22.9195 104.966 22.61 104.976 22.2979C104.971 21.9667 105.045 21.639 105.191 21.3419C105.335 21.0567 105.544 20.8088 105.8 20.6179C106.087 20.4069 106.411 20.2512 106.755 20.1589C107.22 20.048 107.698 19.9943 108.176 19.9989C108.663 19.9903 109.149 20.0462 109.621 20.1649C109.965 20.2535 110.3 20.3758 110.621 20.5299L110.083 22.0139C109.821 21.9659 109.783 22.0249 109.314 21.9399C108.979 21.8649 108.637 21.8223 108.293 21.8129C107.963 21.7897 107.633 21.8484 107.332 21.9839C107.239 22.0055 107.154 22.0557 107.091 22.1273C107.027 22.199 106.987 22.2887 106.977 22.3839C106.973 22.4912 107.011 22.5959 107.084 22.6749C107.195 22.7609 107.319 22.8285 107.451 22.8749ZM99 27.9999V19.9999H101V25.9999H104V27.9999H99ZM95.559 27.9999L94 25.7589L92.44 27.9999H89.991L92.775 23.9999L89.991 19.9999H92.44L94 22.2399L95.559 19.9999H98.009L95.225 23.9999L98.009 27.9999H95.559Z" fill="white"/>
<path fill-rule="evenodd" clip-rule="evenodd" d="M27 65V67H24V70H22V62H27V64H24V65H27ZM19 70H17V64H15V62H21V64H19V70ZM11.7 70L9.98 67H9V70H7V62H11.5C12.0993 61.9992 12.6789 62.2143 13.1327 62.6058C13.5864 62.9974 13.884 63.5392 13.9709 64.1322C14.0579 64.7252 13.9283 65.3297 13.6061 65.8351C13.2838 66.3404 12.7904 66.7127 12.216 66.884L14 70H11.7ZM11.5 64H9V65H11.5C11.6326 65 11.7598 64.9473 11.8535 64.8535C11.9473 64.7598 12 64.6326 12 64.5C12 64.3674 11.9473 64.2402 11.8535 64.1465C11.7598 64.0527 11.6326 64 11.5 64Z" fill="white"/>
<path fill-rule="evenodd" clip-rule="evenodd" d="M58.5 67H56V70H54V62H58.5C59.163 62 59.7989 62.2634 60.2678 62.7322C60.7366 63.2011 61 63.837 61 64.5C61 65.163 60.7366 65.7989 60.2678 66.2678C59.7989 66.7366 59.163 67 58.5 67ZM58.5 64H56V65H58.5C58.6326 65 58.7598 64.9473 58.8535 64.8535C58.9473 64.7598 59 64.6326 59 64.5C59 64.3674 58.9473 64.2402 58.8535 64.1465C58.7598 64.0527 58.6326 64 58.5 64ZM68 70H66C65.3431 70.0013 64.696 69.8407 64.1159 69.5326C63.5357 69.2244 63.0404 68.7781 62.6737 68.2332C62.307 67.6882 62.0801 67.0612 62.0131 66.4078C61.9462 65.7543 62.0412 65.0944 62.2898 64.4863C62.5383 63.8783 62.9328 63.3408 63.4384 62.9214C63.944 62.502 64.5451 62.2136 65.1886 62.0816C65.8321 61.9496 66.4982 61.9781 67.128 62.1646C67.7579 62.3512 68.3321 62.6899 68.8 63.151L67.559 64.751L67.538 64.741C67.2971 64.4435 66.9758 64.2214 66.6124 64.101C66.2489 63.9807 65.8586 63.9672 65.4877 64.0622C65.1168 64.1571 64.781 64.3565 64.5201 64.6367C64.2592 64.9169 64.0842 65.2661 64.0158 65.6428C63.9475 66.0195 63.9888 66.4079 64.1346 66.7618C64.2805 67.1158 64.525 67.4204 64.8389 67.6396C65.1528 67.8587 65.523 67.9832 65.9056 67.9981C66.2881 68.0131 66.6669 67.918 66.997 67.724V66H68.997V69L68 70ZM49.5 70H47.5C47.3321 70.0002 47.1646 69.9834 47 69.95V67C47 67.2652 47.1054 67.5196 47.2929 67.7071C47.4804 67.8946 47.7348 68 48 68H49C49.2652 68 49.5196 67.8946 49.7071 67.7071C49.8946 67.5196 50 67.2652 50 67V62H52V67.5C52 68.163 51.7366 68.7989 51.2678 69.2678C50.7989 69.7366 50.163 70 49.5 70Z" fill="white"/>
<path fill-rule="evenodd" clip-rule="evenodd" d="M111 65V67H108V70H106V62H111V64H108V65H111ZM102 70H100V62H105V64H102V65H105V67H102V70ZM96 62H98V70H96V62ZM93 70H91V64H89V62H95V64H93V70Z" fill="white"/>
<path fill-rule="evenodd" clip-rule="evenodd" d="M27 110V112H22V104H27V106H24V107H27V109H24V110H27ZM16 112V104H18V110H21V112H16ZM12 104H14V112H12V104ZM7 112H5V104H10V106H7V107H10V109H7V112Z" fill="white"/>
<path fill-rule="evenodd" clip-rule="evenodd" d="M67 106V112H65V106H63V104H69V106H67ZM59.559 112L58 109.759L56.44 112H53.991L56.775 108L53.991 104H56.44L58 106.24L59.559 104H62.009L59.225 108L62.009 112H59.559ZM51 112H49V106H47V104H53V106H51V112Z" fill="white"/>
<path fill-rule="evenodd" clip-rule="evenodd" d="M111 112H109C108.343 112.001 107.696 111.84 107.116 111.532C106.536 111.224 106.041 110.778 105.674 110.233C105.308 109.688 105.081 109.061 105.014 108.408C104.947 107.754 105.042 107.095 105.291 106.487C105.539 105.879 105.934 105.341 106.439 104.922C106.944 104.502 107.545 104.214 108.189 104.082C108.832 103.95 109.498 103.978 110.128 104.164C110.758 104.351 111.332 104.689 111.8 105.15L110.559 106.75L110.538 106.739C110.297 106.441 109.976 106.219 109.612 106.099C109.249 105.979 108.859 105.965 108.488 106.06C108.117 106.155 107.781 106.355 107.52 106.635C107.259 106.915 107.084 107.264 107.016 107.641C106.948 108.017 106.989 108.406 107.135 108.76C107.281 109.114 107.525 109.418 107.839 109.638C108.153 109.857 108.523 109.981 108.906 109.996C109.288 110.011 109.667 109.916 109.997 109.722V108H111.997V111L111 112ZM102.531 112L99 107.324V112H97V104H98.469L102 108.675V104H104V112H102.531ZM93.5 109H91V112H89V104H93.5C94.163 104 94.7989 104.263 95.2678 104.732C95.7366 105.201 96 105.837 96 106.5C96 107.163 95.7366 107.799 95.2678 108.268C94.7989 108.737 94.163 109 93.5 109ZM93.5 106H91V107H93.5C93.6326 107 93.7598 106.947 93.8535 106.854C93.9473 106.76 94 106.633 94 106.5C94 106.367 93.9473 106.24 93.8535 106.146C93.7598 106.053 93.6326 106 93.5 106Z" fill="white"/>
<path fill-rule="evenodd" clip-rule="evenodd" d="M22 154H20V146H25V148H22V149H25V151H22V154ZM16 146H18V154H16V146ZM13 154H11C10.3431 154.001 9.69602 153.841 9.11588 153.533C8.53575 153.224 8.04045 152.778 7.67372 152.233C7.30698 151.688 7.08011 151.061 7.01315 150.408C6.94618 149.754 7.04119 149.094 7.28977 148.486C7.53835 147.878 7.93285 147.341 8.43842 146.921C8.944 146.502 9.5451 146.214 10.1886 146.082C10.8321 145.95 11.4982 145.978 12.128 146.165C12.7579 146.351 13.3321 146.69 13.8 147.151L12.559 148.751L12.538 148.741C12.2971 148.443 11.9758 148.221 11.6124 148.101C11.2489 147.981 10.8586 147.967 10.4877 148.062C10.1168 148.157 9.78098 148.357 9.52007 148.637C9.25917 148.917 9.08417 149.266 9.01585 149.643C8.94753 150.019 8.98876 150.408 9.13465 150.762C9.28055 151.116 9.52498 151.42 9.83889 151.64C10.1528 151.859 10.523 151.983 10.9056 151.998C11.2881 152.013 11.6669 151.918 11.997 151.724V150H13.997V153L13 154Z" fill="white"/>
<path fill-rule="evenodd" clip-rule="evenodd" d="M68.5 151H66V154H64V146H68.5C69.163 146 69.7989 146.263 70.2678 146.732C70.7366 147.201 71 147.837 71 148.5C71 149.163 70.7366 149.799 70.2678 150.268C69.7989 150.737 69.163 151 68.5 151ZM68.5 148H66V149H68.5C68.6326 149 68.7598 148.947 68.8535 148.854C68.9473 148.76 69 148.633 69 148.5C69 148.367 68.9473 148.24 68.8535 148.146C68.7598 148.053 68.6326 148 68.5 148ZM60.987 149.407L59.01 152.529L56.981 149.429L57 154L55 154.01V146H57.2L59 149.1L60.8 146H63V154.015L61 154.005L60.987 149.407ZM59 152.544L59.01 152.529L59.02 152.544H59ZM54 151.5C54 152.163 53.7366 152.799 53.2678 153.268C52.7989 153.737 52.163 154 51.5 154H47V146H51.5C52.163 146 52.7989 146.263 53.2678 146.732C53.7366 147.201 54 147.837 54 148.5C53.9578 148.809 53.8458 149.105 53.6726 149.365C53.4994 149.625 53.2694 149.842 53 150C53.2855 150.138 53.5289 150.35 53.7047 150.613C53.8806 150.877 53.9826 151.183 54 151.5ZM51.5 148H49V149H51.5C51.6326 149 51.7598 148.947 51.8535 148.854C51.9473 148.76 52 148.633 52 148.5C52 148.367 51.9473 148.24 51.8535 148.146C51.7598 148.053 51.6326 148 51.5 148ZM51.5 151H49V152H51.5C51.6326 152 51.7598 151.947 51.8535 151.854C51.9473 151.76 52 151.633 52 151.5C52 151.367 51.9473 151.24 51.8535 151.146C51.7598 151.053 51.6326 151 51.5 151Z" fill="white"/>
<path fill-rule="evenodd" clip-rule="evenodd" d="M94.5 151H92V154H90V146H94.5C95.163 146 95.7989 146.263 96.2678 146.732C96.7366 147.201 97 147.837 97 148.5C97 149.163 96.7366 149.799 96.2678 150.268C95.7989 150.737 95.163 151 94.5 151ZM94.5 148H92V149H94.5C94.6326 149 94.7598 148.947 94.8535 148.854C94.9473 148.76 95 148.633 95 148.5C95 148.367 94.9473 148.24 94.8535 148.146C94.7598 148.053 94.6326 148 94.5 148ZM102.5 151H100V154H98V146H102.5C103.163 146 103.799 146.263 104.268 146.732C104.737 147.201 105 147.837 105 148.5C105 149.163 104.737 149.799 104.268 150.268C103.799 150.737 103.163 151 102.5 151ZM102.5 148H100V149H102.5C102.633 149 102.76 148.947 102.854 148.854C102.947 148.76 103 148.633 103 148.5C103 148.367 102.947 148.24 102.854 148.146C102.76 148.053 102.633 148 102.5 148ZM110 148V154H108V148H106V146H112V148H110Z" fill="white"/>
<path fill-rule="evenodd" clip-rule="evenodd" d="M6 208V202H8V206H38V178H30V170H8V182H6V168H31.855L40 176.142V208H6ZM32 171V176H37L32 171Z" fill="#CACACA"/>
<path d="M31 184H2C0.89543 184 0 184.895 0 186V198C0 199.105 0.89543 200 2 200H31C32.1046 200 33 199.105 33 198V186C33 184.895 32.1046 184 31 184Z" fill="#91338B"/>
<path fill-rule="evenodd" clip-rule="evenodd" d="M48 208V202H50V206H80V178H72V170H50V182H48V168H73.855L82 176.142V208H48ZM74 171V176H79L74 171Z" fill="#CACACA"/>
<path d="M73 184H44C42.8954 184 42 184.895 42 186V198C42 199.105 42.8954 200 44 200H73C74.1046 200 75 199.105 75 198V186C75 184.895 74.1046 184 73 184Z" fill="#E01300"/>
<path fill-rule="evenodd" clip-rule="evenodd" d="M90 208V202H92V206H122V178H114V170H92V182H90V168H115.855L124 176.142V208H90ZM116 171V176H121L116 171Z" fill="#CACACA"/>
<path d="M117.943 184H86.0571C84.921 184 84 184.895 84 186V198C84 199.105 84.921 200 86.0571 200H117.943C119.079 200 120 199.105 120 198V186C120 184.895 119.079 184 117.943 184Z" fill="#D24628"/>
<path fill-rule="evenodd" clip-rule="evenodd" d="M9.7 196L7.98 193H7V196H5V188H9.5C10.0993 187.999 10.6789 188.214 11.1327 188.606C11.5864 188.997 11.884 189.539 11.9709 190.132C12.0579 190.725 11.9283 191.33 11.6061 191.835C11.2838 192.34 10.7904 192.713 10.216 192.884L12 196H9.7ZM9.5 190H7V191H9.5C9.63261 191 9.75978 190.947 9.85355 190.854C9.94731 190.76 10 190.633 10 190.5C10 190.367 9.94731 190.24 9.85355 190.146C9.75978 190.053 9.63261 190 9.5 190ZM26.7 196L24.98 193H24V196H22V188H26.5C27.0993 187.999 27.6789 188.214 28.1327 188.606C28.5864 188.997 28.884 189.539 28.9709 190.132C29.0579 190.725 28.9283 191.33 28.6061 191.835C28.2838 192.34 27.7904 192.713 27.216 192.884L29 196H26.7ZM26.5 190H24V191H26.5C26.6326 191 26.7598 190.947 26.8535 190.854C26.9473 190.76 27 190.633 27 190.5C27 190.367 26.9473 190.24 26.8535 190.146C26.7598 190.053 26.6326 190 26.5 190ZM12.8572 196H14.9884L15.3566 195H18.6434L19.0116 196H21.1428L18.4384 188.654L18.1974 188H17.5H16.5H15.8025L15.5616 188.654L12.8572 196ZM17.907 193L17 190.536L16.0929 193H17.907Z" fill="white"/>
<path fill-rule="evenodd" clip-rule="evenodd" d="M56 196H49V194.389L52.8587 190H49V188H56V189.611L52.1413 194H56V196ZM58 188H60V196H58V188ZM66.5 193H64V196H62V188H66.5C67.163 188 67.7989 188.263 68.2678 188.732C68.7366 189.201 69 189.837 69 190.5C69 191.163 68.7366 191.799 68.2678 192.268C67.7989 192.737 67.163 193 66.5 193ZM66.5 190H64V191H66.5C66.6326 191 66.7598 190.947 66.8535 190.854C66.9473 190.76 67 190.633 67 190.5C67 190.367 66.9473 190.24 66.8535 190.146C66.7598 190.053 66.6326 190 66.5 190Z" fill="white"/>
<path fill-rule="evenodd" clip-rule="evenodd" d="M90 193H91.5C92.163 193 92.7989 192.737 93.2678 192.268C93.7366 191.799 94 191.163 94 190.5C94 189.837 93.7366 189.201 93.2678 188.732C92.7989 188.263 92.163 188 91.5 188H88V196H90V193ZM90 190H91.5C91.6326 190 91.7598 190.053 91.8535 190.146C91.9473 190.24 92 190.367 92 190.5C92 190.633 91.9473 190.76 91.8535 190.854C91.7598 190.947 91.6326 191 91.5 191H90V190ZM97 193H98.5C99.163 193 99.7989 192.737 100.268 192.268C100.737 191.799 101 191.163 101 190.5C101 189.837 100.737 189.201 100.268 188.732C99.7989 188.263 99.163 188 98.5 188H95V196H97V193ZM97 190H98.5C98.6326 190 98.7598 190.053 98.8535 190.146C98.9473 190.24 99 190.367 99 190.5C99 190.633 98.9473 190.76 98.8535 190.854C98.7598 190.947 98.6326 191 98.5 191H97V190ZM104 196H106V190H108V188H102V190H104V196ZM113 193.759L114.556 196H117L114.222 192L117 188H114.556L113 190.24L111.444 188H109L111.778 192L109 196H111.444L113 193.759Z" fill="white"/>
</svg>
