<svg width="0" height="0" class="hidden">
    <symbol width="20" height="20" viewBox="0 -1 20 20" fill="none" xmlns="http://www.w3.org/2000/svg" id="on">
        <path d="M12.1228 0.519903C12.3879 0.0354315 12.9956 -0.142361 13.4801 0.122792C16.7696 1.92316 19 5.45031 19 9.50001C19 13.5497 16.7696 17.0768 13.4801 18.8772C12.9956 19.1424 12.3879 18.9646 12.1228 18.4801C11.8576 17.9956 12.0354 17.3879 12.5199 17.1228C15.1841 15.6647 17 12.801 17 9.50001C17 6.199 15.1841 3.33534 12.5199 1.87722C12.0354 1.61206 11.8576 1.00437 12.1228 0.519903Z" fill="white"/>
        <path d="M12.4242 5.51929C12.8758 5.2013 13.4996 5.30958 13.8176 5.76114C14.5625 6.81884 15 8.10981 15 9.49998C15 10.8902 14.5625 12.1811 13.8176 13.2388C13.4996 13.6904 12.8758 13.7987 12.4242 13.4807C11.9727 13.1627 11.8644 12.5389 12.1824 12.0873C12.6976 11.3557 13 10.4646 13 9.49998C13 8.53534 12.6976 7.64431 12.1824 6.91267C11.8644 6.46111 11.9727 5.83727 12.4242 5.51929Z" fill="white"/>
        <path fill-rule="evenodd" clip-rule="evenodd" d="M10 2.99999C10 2.6062 9.76889 2.24907 9.40966 2.08775C9.05042 1.92643 8.62996 1.99096 8.33564 2.25258L4.1198 5.99999H1C0.447715 5.99999 0 6.4477 0 6.99999V12C0 12.5523 0.447715 13 1 13H4.1198L8.33564 16.7474C8.62996 17.009 9.05042 17.0735 9.40966 16.9122C9.76889 16.7509 10 16.3938 10 16V2.99999ZM5.16436 7.7474L8 5.22683V13.7731L5.16436 11.2526C4.98131 11.0899 4.74491 11 4.5 11H2V7.99999H4.5C4.74491 7.99999 4.98131 7.91011 5.16436 7.7474Z" fill="white"/>
    </symbol>
    <symbol width="20" height="20" viewBox="0 0 20 20" fill="none" xmlns="http://www.w3.org/2000/svg" id="off">
        <path fill-rule="evenodd" clip-rule="evenodd" d="M19.7071 1.70698C20.0976 1.31646 20.0976 0.683295 19.7071 0.292771C19.3166 -0.0977532 18.6834 -0.0977532 18.2929 0.292771L15.7696 2.81602C15.0882 2.1527 14.3186 1.58162 13.4801 1.12273C12.9956 0.857578 12.3879 1.03537 12.1228 1.51984C11.8576 2.00431 12.0354 2.612 12.5199 2.87716C13.1906 3.24426 13.8076 3.70045 14.3554 4.23028L10 8.58566V3.99994C10 3.60615 9.76889 3.24902 9.40966 3.0877C9.05042 2.92638 8.62996 2.99091 8.33564 3.25253L4.1198 6.99994H1C0.447715 6.99994 1.49012e-08 7.44766 1.49012e-08 7.99994V12.9999C1.49012e-08 13.5522 0.447715 13.9999 1 13.9999H4.1198L4.36646 14.2192L0.292893 18.2928C-0.0976311 18.6833 -0.0976311 19.3165 0.292893 19.707C0.683417 20.0975 1.31658 20.0975 1.70711 19.707L19.7071 1.70698ZM5.78312 12.8025L8 10.5857V6.22679L5.16436 8.74735C4.98131 8.91006 4.74491 8.99994 4.5 8.99994H2V11.9999H4.5C4.74491 11.9999 4.98131 12.0898 5.16436 12.2525L5.78312 12.8025Z" fill="white"/>
        <path d="M16.4586 7.45548L17.9858 5.92833C18.6362 7.31408 19 8.8644 19 10.4999C19 14.5496 16.7696 18.0768 13.4801 19.8772C12.9956 20.1423 12.3879 19.9645 12.1228 19.48C11.8576 18.9956 12.0354 18.3879 12.5199 18.1227C15.1841 16.6646 17 13.8009 17 10.4999C17 9.42795 16.8085 8.40207 16.4586 7.45548Z" fill="white"/>
        <path d="M14.8424 9.07171L12.9793 10.9348C12.9031 11.732 12.6192 12.4669 12.1824 13.0873C11.8644 13.5388 11.9727 14.1626 12.4242 14.4806C12.8758 14.7986 13.4996 14.6903 13.8176 14.2388C14.5625 13.1811 15 11.8901 15 10.4999C15 10.0096 14.9456 9.53152 14.8424 9.07171Z" fill="white"/>
        <path d="M10 13.9141L7.1874 16.7267L8.33564 17.7474C8.62996 18.009 9.05042 18.0735 9.40966 17.9122C9.76889 17.7509 10 17.3937 10 16.9999V13.9141Z" fill="white"/>
    </symbol>
</svg>
